# This file uses centimeters as units for non-parametric coordinates.

mtllib apple_mod.mtl
g default
v -0.295132 0.265796 0.295132
v 0.295132 0.265796 0.295132
v -0.298679 1.404748 0.298679
v 0.298679 1.404748 0.298679
v -0.298679 1.404748 -0.298679
v 0.298679 1.404748 -0.298679
v -0.295132 0.265796 -0.295132
v 0.295132 0.265796 -0.295132
v 0.000000 0.639002 0.682405
v 0.000000 0.265796 0.414066
v 0.486395 0.639002 0.486395
v 0.000000 1.404748 0.419042
v -0.486395 0.639002 0.486395
v 0.000000 1.244982 0.000000
v 0.419042 1.404748 0.000000
v 0.000000 1.404748 -0.419042
v -0.419042 1.404748 0.000000
v 0.000000 0.639002 -0.682405
v 0.486395 0.639002 -0.486395
v 0.000000 0.265796 -0.414066
v -0.486395 0.639002 -0.486395
v 0.000000 0.265796 0.000000
v 0.414066 0.265796 0.000000
v -0.414066 0.265796 0.000000
v 0.682405 0.639002 0.000000
v -0.682405 0.639002 0.000000
v -0.500000 1.029630 0.500000
v -0.701492 1.029630 0.000000
v -0.500000 1.029630 -0.500000
v 0.000000 1.029630 -0.701492
v 0.500000 1.029630 -0.500000
v 0.701492 1.029630 0.000000
v 0.500000 1.029630 0.500000
v 0.000000 1.029630 0.701492
v -0.483038 1.200978 0.483038
v -0.677695 1.200978 0.000000
v -0.483038 1.200978 -0.483038
v 0.000000 1.200978 -0.677695
v 0.483038 1.200978 -0.483038
v 0.677695 1.200978 0.000000
v 0.483038 1.200978 0.483038
v 0.000000 1.200978 0.677695
vt 0.375000 0.000000
vt 0.625000 0.000000
vt 0.375000 0.250000
vt 0.625000 0.250000
vt 0.375000 0.500000
vt 0.625000 0.500000
vt 0.375000 0.750000
vt 0.625000 0.750000
vt 0.375000 1.000000
vt 0.625000 1.000000
vt 0.875000 0.000000
vt 0.875000 0.250000
vt 0.125000 0.000000
vt 0.125000 0.250000
vt 0.500000 0.125000
vt 0.500000 0.000000
vt 0.500000 1.000000
vt 0.625000 0.125000
vt 0.500000 0.250000
vt 0.375000 0.125000
vt 0.500000 0.375000
vt 0.625000 0.375000
vt 0.750000 0.250000
vt 0.500000 0.500000
vt 0.250000 0.250000
vt 0.375000 0.375000
vt 0.500000 0.625000
vt 0.625000 0.625000
vt 0.875000 0.125000
vt 0.500000 0.750000
vt 0.125000 0.125000
vt 0.375000 0.625000
vt 0.500000 0.875000
vt 0.625000 0.875000
vt 0.750000 0.000000
vt 0.500000 1.000000
vt 0.250000 0.000000
vt 0.375000 0.875000
vt 0.750000 0.125000
vt 0.750000 0.000000
vt 0.875000 0.125000
vt 0.750000 0.250000
vt 0.250000 0.125000
vt 0.250000 0.000000
vt 0.250000 0.250000
vt 0.125000 0.125000
vt 0.375000 0.187500
vt 0.250000 0.187500
vt 0.125000 0.187500
vt 0.375000 0.562500
vt 0.500000 0.562500
vt 0.625000 0.562500
vt 0.875000 0.187500
vt 0.750000 0.187500
vt 0.625000 0.187500
vt 0.500000 0.187500
vt 0.375000 0.218750
vt 0.250000 0.218750
vt 0.125000 0.218750
vt 0.375000 0.531250
vt 0.500000 0.531250
vt 0.625000 0.531250
vt 0.875000 0.218750
vt 0.750000 0.218750
vt 0.625000 0.218750
vt 0.500000 0.218750
vn -0.310967 -0.554833 0.771661
vn -0.310967 -0.554833 0.771661
vn -0.310967 -0.554833 0.771661
vn -0.310967 -0.554833 0.771661
vn 0.352635 0.924908 -0.142106
vn 0.250158 0.935330 -0.250158
vn 0.250158 0.935330 -0.250158
vn 0.142106 0.924908 -0.352635
vn -0.373393 -0.045275 -0.926568
vn -0.373765 0.007530 -0.927493
vn -0.373393 -0.045275 -0.926568
vn -0.373769 0.005988 -0.927502
vn 0.000000 -1.000000 0.000000
vn 0.000000 -1.000000 0.000000
vn 0.000000 -1.000000 0.000000
vn 0.000000 -1.000000 0.000000
vn 0.771661 -0.554833 0.310967
vn 0.771661 -0.554833 0.310967
vn 0.771661 -0.554833 0.310967
vn 0.771661 -0.554833 0.310967
vn -0.771661 -0.554833 -0.310967
vn -0.771661 -0.554833 -0.310967
vn -0.771661 -0.554833 -0.310967
vn -0.771661 -0.554833 -0.310967
vn 0.310967 -0.554833 0.771661
vn 0.310967 -0.554833 0.771661
vn 0.310967 -0.554833 0.771661
vn 0.310967 -0.554833 0.771661
vn 0.373393 -0.045275 0.926568
vn 0.373765 0.007530 0.927493
vn 0.373393 -0.045275 0.926568
vn 0.373769 0.005988 0.927502
vn -0.373769 0.005988 0.927502
vn -0.373765 0.007530 0.927493
vn -0.373393 -0.045275 0.926568
vn -0.373393 -0.045275 0.926568
vn -0.142106 0.924908 -0.352635
vn -0.250158 0.935330 -0.250158
vn -0.250158 0.935330 -0.250158
vn -0.352635 0.924908 -0.142106
vn -0.352635 0.924908 0.142106
vn -0.250158 0.935330 0.250158
vn -0.250158 0.935330 0.250158
vn -0.142106 0.924908 0.352635
vn 0.142106 0.924908 0.352635
vn 0.250158 0.935330 0.250158
vn 0.250158 0.935330 0.250158
vn 0.352635 0.924908 0.142106
vn 0.373769 0.005988 -0.927502
vn 0.373765 0.007530 -0.927493
vn 0.373393 -0.045275 -0.926568
vn 0.373393 -0.045275 -0.926568
vn 0.310967 -0.554833 -0.771661
vn 0.310967 -0.554833 -0.771661
vn 0.310967 -0.554833 -0.771661
vn 0.310967 -0.554833 -0.771661
vn -0.310967 -0.554833 -0.771661
vn -0.310967 -0.554833 -0.771661
vn -0.310967 -0.554833 -0.771661
vn -0.310967 -0.554833 -0.771661
vn 0.000000 -1.000000 0.000000
vn 0.000000 -1.000000 0.000000
vn 0.000000 -1.000000 0.000000
vn 0.000000 -1.000000 0.000000
vn 0.000000 -1.000000 -0.000000
vn 0.000000 -1.000000 -0.000000
vn 0.000000 -1.000000 -0.000000
vn 0.000000 -1.000000 0.000000
vn 0.000000 -1.000000 0.000000
vn 0.000000 -1.000000 -0.000000
vn 0.000000 -1.000000 -0.000000
vn 0.000000 -1.000000 -0.000000
vn 0.771661 -0.554833 -0.310967
vn 0.771661 -0.554833 -0.310967
vn 0.771661 -0.554833 -0.310967
vn 0.771661 -0.554833 -0.310967
vn 0.926568 -0.045275 -0.373393
vn 0.927493 0.007530 -0.373765
vn 0.926568 -0.045275 -0.373393
vn 0.927502 0.005988 -0.373769
vn 0.927502 0.005988 0.373769
vn 0.927493 0.007530 0.373765
vn 0.926568 -0.045275 0.373393
vn 0.926568 -0.045275 0.373393
vn -0.771661 -0.554833 0.310967
vn -0.771661 -0.554833 0.310967
vn -0.771661 -0.554833 0.310967
vn -0.771661 -0.554833 0.310967
vn -0.926568 -0.045275 0.373393
vn -0.927493 0.007530 0.373765
vn -0.926568 -0.045275 0.373393
vn -0.927502 0.005988 0.373769
vn -0.927502 0.005988 -0.373769
vn -0.927493 0.007530 -0.373765
vn -0.926568 -0.045275 -0.373393
vn -0.926568 -0.045275 -0.373393
vn -0.786914 0.529343 0.317115
vn -0.802099 0.502153 0.323233
vn -0.802099 0.502153 -0.323233
vn -0.786914 0.529343 -0.317115
vn -0.317114 0.529343 -0.786914
vn -0.323234 0.502153 -0.802099
vn 0.323234 0.502153 -0.802099
vn 0.317114 0.529343 -0.786914
vn 0.786914 0.529343 -0.317115
vn 0.802099 0.502153 -0.323233
vn 0.802099 0.502153 0.323233
vn 0.786914 0.529343 0.317115
vn 0.317114 0.529343 0.786914
vn 0.323234 0.502153 0.802099
vn -0.323234 0.502153 0.802099
vn -0.317114 0.529343 0.786914
vn -0.600451 0.762173 0.241973
vn -0.600451 0.762173 0.241972
vn -0.600451 0.762173 -0.241972
vn -0.600451 0.762173 -0.241973
vn -0.241972 0.762173 -0.600451
vn -0.241972 0.762173 -0.600451
vn 0.241972 0.762173 -0.600451
vn 0.241972 0.762173 -0.600451
vn 0.600451 0.762173 -0.241973
vn 0.600451 0.762173 -0.241972
vn 0.600451 0.762173 0.241972
vn 0.600451 0.762173 0.241973
vn 0.241972 0.762173 0.600451
vn 0.241972 0.762173 0.600451
vn -0.241972 0.762173 0.600451
vn -0.241972 0.762173 0.600451
s 1
g apple
usemtl standardSurface2SG
f 13/20/1 1/1/2 9/15/3
f 9/15/3 1/1/2 10/16/4
s 2
f 17/26/5 3/3/6 14/21/7
f 14/21/7 3/3/6 12/19/8
s 3
f 21/32/9 29/50/10 18/27/11
f 18/27/11 29/50/10 30/51/12
s 4
f 24/38/13 7/7/14 22/33/15
f 22/33/15 7/7/14 20/30/16
s 5
f 11/18/17 2/2/18 25/39/19
f 25/39/19 2/2/18 23/40/20
s 6
f 21/46/21 7/13/22 26/43/23
f 26/43/23 7/13/22 24/44/24
s 7
f 10/16/25 2/2/26 9/15/27
f 9/15/27 2/2/26 11/18/28
s 8
f 11/18/29 33/55/30 9/15/31
f 9/15/31 33/55/30 34/56/32
s 9
f 34/56/33 27/47/34 9/15/35
f 9/15/35 27/47/34 13/20/36
s 10
f 12/19/37 4/4/38 14/21/39
f 14/21/39 4/4/38 15/22/40
s 11
f 15/22/41 6/6/42 14/21/43
f 14/21/43 6/6/42 16/24/44
s 12
f 16/24/45 5/5/46 14/21/47
f 14/21/47 5/5/46 17/26/48
s 13
f 30/51/49 31/52/50 18/27/51
f 18/27/51 31/52/50 19/28/52
s 14
f 19/28/53 8/8/54 18/27/55
f 18/27/55 8/8/54 20/30/56
s 15
f 20/30/57 7/7/58 18/27/59
f 18/27/59 7/7/58 21/32/60
s 16
f 20/30/61 8/8/62 22/33/63
f 22/33/63 8/8/62 23/34/64
s 17
f 23/34/65 2/10/66 22/33/67
f 22/33/67 2/10/66 10/36/68
s 18
f 10/36/69 1/9/70 22/33/71
f 22/33/71 1/9/70 24/38/72
s 19
f 23/40/73 8/11/74 25/39/75
f 25/39/75 8/11/74 19/41/76
s 20
f 19/41/77 31/53/78 25/39/79
f 25/39/79 31/53/78 32/54/80
s 21
f 32/54/81 33/55/82 25/39/83
f 25/39/83 33/55/82 11/18/84
s 22
f 24/44/85 1/1/86 26/43/87
f 26/43/87 1/1/86 13/20/88
s 23
f 13/20/89 27/47/90 26/43/91
f 26/43/91 27/47/90 28/48/92
s 24
f 28/48/93 29/49/94 26/43/95
f 26/43/95 29/49/94 21/46/96
s 23
f 27/47/90 35/57/97 28/48/92
f 28/48/92 35/57/97 36/58/98
s 24
f 36/58/99 37/59/100 28/48/93
f 28/48/93 37/59/100 29/49/94
s 3
f 29/50/10 37/60/101 30/51/12
f 30/51/12 37/60/101 38/61/102
s 13
f 38/61/103 39/62/104 30/51/49
f 30/51/49 39/62/104 31/52/50
s 20
f 31/53/78 39/63/105 32/54/80
f 32/54/80 39/63/105 40/64/106
s 21
f 40/64/107 41/65/108 32/54/81
f 32/54/81 41/65/108 33/55/82
s 8
f 33/55/30 41/65/109 34/56/32
f 34/56/32 41/65/109 42/66/110
s 9
f 42/66/111 35/57/112 34/56/33
f 34/56/33 35/57/112 27/47/34
s 23
f 35/57/97 3/3/113 36/58/98
f 36/58/98 3/3/113 17/45/114
s 24
f 17/45/115 5/14/116 36/58/99
f 36/58/99 5/14/116 37/59/100
s 3
f 37/60/101 5/5/117 38/61/102
f 38/61/102 5/5/117 16/24/118
s 13
f 16/24/119 6/6/120 38/61/103
f 38/61/103 6/6/120 39/62/104
s 20
f 39/63/105 6/12/121 40/64/106
f 40/64/106 6/12/121 15/42/122
s 21
f 15/42/123 4/4/124 40/64/107
f 40/64/107 4/4/124 41/65/108
s 8
f 41/65/109 4/4/125 42/66/110
f 42/66/110 4/4/125 12/19/126
s 9
f 12/19/127 3/3/128 42/66/111
f 42/66/111 3/3/128 35/57/112
