# This file uses centimeters as units for non-parametric coordinates.

mtllib banana_mod.mtl
g default
v -0.133522 0.333727 1.396488
v 0.109248 0.339514 1.405213
v -0.119703 5.327986 1.034992
v 0.112978 5.326665 1.042396
v -0.112399 5.479612 0.822939
v 0.120281 5.478291 0.830343
v -0.124581 0.108760 1.264132
v 0.118189 0.114547 1.272856
v -0.004831 5.296831 1.081343
v 0.005410 5.509446 0.783992
v -0.001398 0.066407 1.241874
v -0.013935 0.381866 1.427470
v 0.163427 5.402213 0.937859
v 0.000289 5.403139 0.932668
v -0.162848 5.404065 0.927476
v -0.177878 0.220079 1.328555
v 0.162545 0.228195 1.340789
v -0.701174 4.406429 0.395967
v -0.496728 4.319932 0.887058
v 0.004599 4.286140 0.987249
v 0.503249 4.322323 0.880721
v 0.724063 4.409782 0.387082
v 0.496594 4.496280 -0.104009
v -0.004734 4.530070 -0.298893
v -0.503384 4.493888 -0.097673
v -0.150093 4.849246 0.728557
v -0.109897 4.761357 0.825457
v -0.002934 4.725667 0.867438
v 0.106743 4.760552 0.832626
v 0.153689 4.848117 0.738610
v 0.113492 4.936006 0.641710
v 0.006530 4.971696 0.599728
v -0.103147 4.936810 0.634541
v -0.648691 0.429082 0.797859
v -0.473262 0.748779 1.140964
v -0.015876 0.847761 1.200553
v 0.450503 0.750309 1.167938
v 0.669678 0.431226 0.835683
v 0.471226 0.111529 0.492578
v 0.013511 -0.017709 0.343261
v -0.452539 0.109999 0.465604
v -0.506592 0.375986 1.062543
v -0.371794 0.614816 1.329894
v -0.020193 0.681093 1.356413
v 0.338557 0.615925 1.350670
v 0.489494 0.377540 1.091676
v 0.354696 0.020019 0.824326
v 0.002767 -0.076514 0.708078
v -0.355655 0.018910 0.803550
v -0.126914 5.287562 0.902338
v -0.093190 5.215230 0.985054
v -0.003368 5.185753 1.020759
v 0.088763 5.214317 0.990857
v 0.128228 5.286282 0.910475
v 0.094504 5.358614 0.827758
v 0.004682 5.388091 0.792054
v -0.087449 5.359527 0.821955
v -0.483839 1.605114 0.432620
v -0.693694 1.385224 -0.012419
v -0.501399 1.157495 -0.461432
v -0.005050 1.057724 -0.646185
v 0.498362 1.138006 -0.471311
v 0.731240 1.357896 -0.026272
v 0.515922 1.585626 0.422741
v 0.019244 1.655140 0.517767
v -0.496720 3.760865 0.677389
v -0.701165 3.847362 0.186298
v -0.503375 3.934822 -0.307342
v -0.004725 3.971004 -0.508562
v 0.496602 3.937213 -0.313678
v 0.724071 3.850715 0.177413
v 0.503257 3.763256 0.671053
v 0.004607 3.727074 0.777580
v -0.489554 1.129200 0.793161
v -0.699409 0.909311 0.348122
v -0.507114 0.681581 -0.100891
v -0.010765 0.581810 -0.285644
v 0.492647 0.662092 -0.110770
v 0.725525 0.881983 0.334269
v 0.510207 1.109712 0.783282
v 0.013529 1.179226 0.878308
v -0.700184 2.468232 -0.179286
v -0.495738 2.381735 0.311805
v 0.005589 2.347944 0.411996
v 0.504239 2.384126 0.305468
v 0.725052 2.471585 -0.188171
v 0.497583 2.558083 -0.679262
v -0.003744 2.591874 -0.874146
v -0.502394 2.555692 -0.672926
v -0.548370 4.567203 0.549212
v -0.390065 4.439122 0.917210
v 0.001880 4.387093 0.989551
v 0.393203 4.437908 0.915373
v 0.549964 4.565501 0.546637
v 0.391659 4.693582 0.178640
v -0.000286 4.745610 0.031384
v -0.391609 4.694795 0.180476
v -0.179461 0.177484 1.400848
v -0.009249 0.181541 1.406965
v -0.015518 0.339271 1.499763
v -0.135105 0.291131 1.468781
v 0.160962 0.185599 1.413082
v 0.107665 0.296919 1.477506
v -0.126164 0.066164 1.336425
v -0.002981 0.023812 1.314168
v 0.116606 0.071951 1.345150
vt 0.375000 0.000000
vt 0.625000 0.000000
vt 0.375000 0.250000
vt 0.625000 0.250000
vt 0.375000 0.500000
vt 0.625000 0.500000
vt 0.375000 0.750000
vt 0.625000 0.750000
vt 0.375000 1.000000
vt 0.625000 1.000000
vt 0.875000 0.000000
vt 0.875000 0.250000
vt 0.125000 0.000000
vt 0.125000 0.250000
vt 0.500000 0.250000
vt 0.500000 0.500000
vt 0.500000 0.750000
vt 0.500000 0.000000
vt 0.500000 1.000000
vt 0.625000 0.375000
vt 0.750000 0.250000
vt 0.500000 0.375000
vt 0.250000 0.250000
vt 0.375000 0.375000
vt 0.250000 0.000000
vt 0.375000 0.875000
vt 0.500000 0.875000
vt 0.625000 0.875000
vt 0.750000 0.000000
vt 0.250000 0.125000
vt 0.375000 0.125000
vt 0.500000 0.125000
vt 0.625000 0.125000
vt 0.750000 0.125000
vt 0.625000 0.625000
vt 0.875000 0.125000
vt 0.500000 0.625000
vt 0.125000 0.125000
vt 0.375000 0.625000
vt 0.250000 0.187500
vt 0.375000 0.187500
vt 0.500000 0.187500
vt 0.625000 0.187500
vt 0.750000 0.187500
vt 0.625000 0.562500
vt 0.875000 0.187500
vt 0.500000 0.562500
vt 0.125000 0.187500
vt 0.375000 0.562500
vt 0.250000 0.062500
vt 0.375000 0.062500
vt 0.500000 0.062500
vt 0.625000 0.062500
vt 0.750000 0.062500
vt 0.625000 0.687500
vt 0.875000 0.062500
vt 0.500000 0.687500
vt 0.125000 0.062500
vt 0.375000 0.687500
vt 0.250000 0.031250
vt 0.375000 0.031250
vt 0.500000 0.031250
vt 0.625000 0.031250
vt 0.750000 0.031250
vt 0.625000 0.718750
vt 0.875000 0.031250
vt 0.500000 0.718750
vt 0.125000 0.031250
vt 0.375000 0.718750
vt 0.250000 0.218750
vt 0.375000 0.218750
vt 0.500000 0.218750
vt 0.625000 0.218750
vt 0.750000 0.218750
vt 0.625000 0.531250
vt 0.875000 0.218750
vt 0.500000 0.531250
vt 0.125000 0.218750
vt 0.375000 0.531250
vt 0.375000 0.093750
vt 0.250000 0.093750
vt 0.125000 0.093750
vt 0.375000 0.656250
vt 0.500000 0.656250
vt 0.625000 0.656250
vt 0.875000 0.093750
vt 0.750000 0.093750
vt 0.625000 0.093750
vt 0.500000 0.093750
vt 0.375000 0.109375
vt 0.250000 0.109375
vt 0.125000 0.109375
vt 0.375000 0.640625
vt 0.500000 0.640625
vt 0.625000 0.640625
vt 0.875000 0.109375
vt 0.750000 0.109375
vt 0.625000 0.109375
vt 0.500000 0.109375
vt 0.375000 0.078125
vt 0.250000 0.078125
vt 0.125000 0.078125
vt 0.375000 0.671875
vt 0.500000 0.671875
vt 0.625000 0.671875
vt 0.875000 0.078125
vt 0.750000 0.078125
vt 0.625000 0.078125
vt 0.500000 0.078125
vt 0.250000 0.101562
vt 0.375000 0.101562
vt 0.500000 0.101562
vt 0.625000 0.101562
vt 0.750000 0.101562
vt 0.625000 0.648438
vt 0.875000 0.101562
vt 0.500000 0.648438
vt 0.125000 0.101562
vt 0.375000 0.648438
vt 0.250000 0.156250
vt 0.375000 0.156250
vt 0.500000 0.156250
vt 0.625000 0.156250
vt 0.750000 0.156250
vt 0.625000 0.593750
vt 0.875000 0.156250
vt 0.500000 0.593750
vt 0.125000 0.156250
vt 0.375000 0.593750
vt 0.500000 1.000000
vt 0.375000 1.000000
vt 0.375000 0.875000
vt 0.625000 0.875000
vt 0.625000 1.000000
vt 0.375000 0.750000
vt 0.500000 0.750000
vt 0.625000 0.750000
vn -0.436344 -0.326381 0.838499
vn -0.031184 -0.348028 0.936965
vn -0.030866 -0.486839 0.872946
vn -0.443420 -0.440777 0.780445
vn -0.013878 0.813593 0.581269
vn -0.013879 0.813592 0.581270
vn -0.013878 0.813594 0.581268
vn -0.013877 0.813593 0.581269
vn -0.296567 -0.057700 -0.953268
vn 0.030916 -0.062435 -0.997570
vn 0.033123 0.297041 -0.954290
vn -0.378313 0.307136 -0.873239
vn -0.018859 -0.507550 0.861416
vn -0.018858 -0.507550 0.861416
vn -0.018858 -0.507550 0.861416
vn -0.018859 -0.507550 0.861416
vn 0.928370 -0.124252 0.350272
vn 0.999847 -0.012014 -0.012753
vn 0.944543 -0.233628 -0.230776
vn 0.928303 -0.311698 0.202726
vn -0.997577 0.002906 -0.069509
vn -0.948732 -0.109639 0.296457
vn -0.941889 -0.303622 0.143729
vn -0.930050 -0.225737 -0.289913
vn -0.013879 0.813592 0.581271
vn -0.013880 0.813594 0.581267
vn 0.355962 -0.060333 -0.932551
vn 0.435820 0.299939 -0.848586
vn -0.018858 -0.507550 0.861416
vn -0.018858 -0.507550 0.861416
vn 0.378900 -0.332942 0.863472
vn 0.388372 -0.444605 0.807152
vn -0.013880 0.813597 0.581264
vn -0.013878 0.813595 0.581267
vn -0.013875 0.813593 0.581270
vn -0.921462 0.073319 -0.381486
vn -0.833640 -0.156034 -0.529809
vn -0.018859 -0.507549 0.861416
vn -0.018858 -0.507550 0.861416
vn -0.018858 -0.507550 0.861416
vn 0.943105 0.059982 -0.327040
vn 0.864024 -0.163026 -0.476325
vn -0.978782 -0.190879 0.074502
vn -0.922431 0.145570 0.357675
vn -0.923283 0.227960 0.309165
vn -0.998828 -0.048404 0.000052
vn -0.212373 0.679940 0.701840
vn -0.008578 0.701075 0.713036
vn 0.014955 0.645805 0.763356
vn -0.200077 0.628219 0.751871
vn 0.222974 0.628766 0.744940
vn 0.202051 0.690494 0.694545
vn 0.898866 0.160314 0.407848
vn 0.975627 -0.191006 0.108019
vn 0.996602 -0.080683 -0.016588
vn 0.913350 0.236933 0.331140
vn 0.903264 -0.306194 -0.300600
vn 0.896388 -0.420309 -0.140816
vn 0.010030 -0.816368 -0.577444
vn -0.013801 -0.674092 -0.738518
vn 0.358658 -0.638067 -0.681348
vn 0.360105 -0.771310 -0.524790
vn -0.374132 -0.628978 -0.681477
vn -0.357772 -0.764438 -0.536315
vn -0.911457 -0.387933 -0.136946
vn -0.927897 -0.261600 -0.265655
vn -0.726420 0.655196 0.207443
vn -0.681590 0.535263 0.498927
vn -0.710811 0.478803 0.515263
vn -0.783727 0.572281 0.241384
vn -0.176382 0.144029 0.973728
vn -0.000742 0.197696 0.980263
vn -0.013318 0.188529 0.981977
vn -0.258320 0.151645 0.954083
vn 0.230877 0.144841 0.962142
vn 0.179165 0.132823 0.974812
vn 0.671134 0.542444 0.505306
vn 0.714506 0.668333 0.206913
vn 0.787496 0.556912 0.264006
vn 0.710419 0.462943 0.530084
vn 0.788646 0.614289 -0.026187
vn 0.680307 0.730760 -0.056316
vn -0.000415 0.888295 -0.459273
vn 0.015789 0.865604 -0.500481
vn 0.330104 0.831785 -0.446279
vn 0.278853 0.856099 -0.435128
vn -0.310637 0.839174 -0.446421
vn -0.279082 0.855746 -0.435673
vn -0.696447 0.715784 -0.051125
vn -0.781105 0.622684 -0.046250
vn -0.811221 -0.386574 0.438726
vn -0.778874 -0.185655 0.599072
vn -0.207079 0.563483 0.799754
vn -0.027918 0.522899 0.851937
vn 0.154660 0.568587 0.807953
vn 0.740766 -0.171640 0.649466
vn 0.780252 -0.389219 0.489608
vn 0.735147 -0.597191 0.320815
vn 0.001846 -0.999998 0.000327
vn 0.270449 -0.962134 0.034010
vn -0.264815 -0.964139 0.017607
vn -0.760366 -0.586804 0.278397
vn -0.666617 -0.491957 0.560001
vn -0.651370 -0.322317 0.686898
vn -0.194124 0.237305 0.951842
vn -0.033269 0.249488 0.967806
vn 0.128200 0.249709 0.959797
vn 0.624306 -0.301769 0.720540
vn 0.650845 -0.474089 0.592993
vn 0.650876 -0.588647 0.479432
vn 0.001169 -0.960681 0.277653
vn 0.201914 -0.939540 0.276577
vn -0.204151 -0.941810 0.267051
vn -0.659035 -0.600260 0.453167
vn -0.998133 -0.008658 -0.060453
vn -0.923721 -0.035062 0.381459
vn -0.924309 -0.110208 0.365387
vn -0.999968 -0.001476 0.007926
vn -0.930700 0.029688 -0.364576
vn -0.929476 0.103344 -0.354110
vn -0.377327 0.264495 -0.887506
vn -0.006754 0.283260 -0.959019
vn -0.006964 0.057403 -0.998327
vn -0.378538 0.042256 -0.924621
vn 0.362820 0.043120 -0.930861
vn 0.364780 0.266269 -0.892209
vn 0.908818 0.117862 -0.400197
vn 0.999984 0.003393 -0.004592
vn 0.996336 -0.003504 -0.085458
vn 0.908183 0.035917 -0.417029
vn 0.915720 -0.030607 0.400650
vn 0.914164 -0.116182 0.388337
vn 0.219927 -0.277554 0.935198
vn 0.006757 -0.284428 0.958674
vn 0.007642 -0.112036 0.993675
vn 0.217343 -0.120737 0.968599
vn -0.201675 -0.124372 0.971524
vn -0.206240 -0.278603 0.938001
vn -0.917750 0.022536 0.396518
vn -0.986406 0.159454 0.039718
vn -0.915202 0.254282 -0.312644
vn -0.355608 0.527039 -0.771863
vn -0.006578 0.531046 -0.847318
vn 0.344762 0.529812 -0.774879
vn 0.893985 0.278086 -0.351366
vn 0.984727 0.171156 0.031929
vn 0.907492 0.029626 0.419024
vn 0.219367 -0.319652 0.921792
vn 0.006857 -0.311311 0.950283
vn -0.205939 -0.319073 0.925085
vn -0.921603 0.127203 0.366698
vn -0.996151 -0.017540 -0.085882
vn -0.931140 -0.113046 -0.346698
vn -0.379493 -0.260122 -0.887875
vn -0.008634 -0.288312 -0.957498
vn 0.356189 -0.264786 -0.896113
vn 0.905283 -0.132675 -0.403559
vn 0.992184 -0.029027 -0.121365
vn 0.916146 0.130044 0.379165
vn 0.221068 0.360388 0.906228
vn 0.017539 0.356979 0.933948
vn -0.191818 0.360315 0.912896
vn -0.431376 0.781383 0.450950
vn -0.431376 0.781383 0.450950
vn -0.948018 0.282809 0.145878
vn -0.948018 0.282809 0.145878
vn -0.948018 0.282809 0.145878
vn -0.948018 0.282809 0.145878
vn 0.923632 0.321039 0.209377
vn 0.923632 0.321039 0.209377
vn 0.923632 0.321039 0.209377
vn 0.923632 0.321039 0.209377
vn 0.361561 0.799799 0.479161
vn 0.361561 0.799799 0.479161
vn -0.361562 -0.799799 -0.479160
vn -0.361562 -0.799799 -0.479160
vn -0.361562 -0.799799 -0.479160
vn -0.361562 -0.799799 -0.479160
vn -0.923631 -0.321039 -0.209378
vn -0.923631 -0.321039 -0.209378
vn -0.923631 -0.321039 -0.209378
vn -0.923631 -0.321039 -0.209378
vn 0.431376 -0.781383 -0.450950
vn 0.431376 -0.781383 -0.450950
vn 0.431376 -0.781383 -0.450950
vn 0.431376 -0.781383 -0.450950
vn 0.948018 -0.282809 -0.145879
vn 0.948018 -0.282809 -0.145879
vn 0.948018 -0.282809 -0.145879
vn 0.948018 -0.282809 -0.145879
s 1
g pCube1
usemtl initialShadingGroup
f 51/71/1 52/72/2 9/15/3 3/3/4
s 2
f 3/3/5 9/15/6 14/22/7 15/24/8
s 3
f 5/5/9 10/16/10 56/77/11 57/79/12
s 4
f 98/132/13 99/27/14 100/130/15 101/131/16
s 5
f 53/73/17 54/74/18 13/21/19 4/4/20
s 6
f 50/70/21 51/71/22 3/3/23 15/23/24
s 2
f 9/15/6 4/4/25 13/20/26 14/22/7
s 3
f 56/77/11 10/16/10 6/6/27 55/75/28
s 4
f 100/130/15 99/27/14 102/133/29 103/134/30
s 1
f 9/15/3 52/72/2 53/73/31 4/4/32
s 2
f 14/22/7 13/20/26 6/6/33 10/16/34
f 15/24/8 14/22/7 10/16/34 5/5/35
s 6
f 57/78/36 50/70/21 15/23/24 5/14/37
s 4
f 104/135/38 105/136/39 99/27/14 98/132/13
f 102/133/29 99/27/14 105/136/39 106/137/40
s 5
f 13/21/19 54/74/18 55/76/41 6/12/42
s 6
f 34/50/43 35/51/44 74/100/45 75/101/46
s 1
f 35/51/47 36/52/48 81/109/49 74/100/50
f 80/108/51 81/109/49 36/52/48 37/53/52
s 5
f 37/53/53 38/54/54 79/107/55 80/108/56
f 78/106/57 79/107/55 38/54/54 39/56/58
s 3
f 40/57/59 77/104/60 78/105/61 39/55/62
f 76/103/63 77/104/60 40/57/59 41/59/64
s 6
f 41/58/65 34/50/43 75/101/46 76/102/66
f 90/120/67 91/121/68 27/41/69 26/40/70
s 1
f 91/121/71 92/122/72 28/42/73 27/41/74
f 29/43/75 28/42/73 92/122/72 93/123/76
s 5
f 93/123/77 94/124/78 30/44/79 29/43/80
f 31/46/81 30/44/79 94/124/78 95/126/82
s 3
f 96/127/83 32/47/84 31/45/85 95/125/86
f 33/49/87 32/47/84 96/127/83 97/129/88
s 6
f 97/128/89 90/120/67 26/40/70 33/48/90
f 42/60/91 43/61/92 35/51/44 34/50/43
s 1
f 43/61/93 44/62/94 36/52/48 35/51/47
f 37/53/52 36/52/48 44/62/94 45/63/95
s 5
f 45/63/96 46/64/97 38/54/54 37/53/53
f 39/56/58 38/54/54 46/64/97 47/66/98
s 3
f 48/67/99 40/57/59 39/55/62 47/65/100
f 41/59/64 40/57/59 48/67/99 49/69/101
s 6
f 49/68/102 42/60/91 34/50/43 41/58/65
f 16/25/103 1/1/104 43/61/92 42/60/91
s 1
f 1/1/105 12/18/106 44/62/94 43/61/93
f 45/63/95 44/62/94 12/18/106 2/2/107
s 5
f 2/2/108 17/29/109 46/64/97 45/63/96
f 47/66/98 46/64/97 17/29/109 8/11/110
s 3
f 11/17/111 48/67/99 47/65/100 8/8/112
f 49/69/101 48/67/99 11/17/111 7/7/113
s 6
f 7/13/114 16/25/103 42/60/91 49/68/102
f 26/40/70 27/41/69 51/71/22 50/70/21
s 1
f 27/41/74 28/42/73 52/72/2 51/71/1
f 53/73/31 52/72/2 28/42/73 29/43/75
s 5
f 29/43/80 30/44/79 54/74/18 53/73/17
f 55/76/41 54/74/18 30/44/79 31/46/81
s 3
f 32/47/84 56/77/11 55/75/28 31/45/85
f 57/79/12 56/77/11 32/47/84 33/49/87
s 6
f 33/48/90 26/40/70 50/70/21 57/78/36
f 82/110/115 83/111/116 66/90/117 67/91/118
f 89/118/119 82/110/115 67/91/118 68/92/120
s 3
f 68/93/121 69/94/122 88/117/123 89/119/124
f 87/115/125 88/117/123 69/94/122 70/95/126
s 5
f 70/96/127 71/97/128 86/114/129 87/116/130
f 85/113/131 86/114/129 71/97/128 72/98/132
s 1
f 72/98/133 73/99/134 84/112/135 85/113/136
f 83/111/137 84/112/135 73/99/134 66/90/138
s 6
f 67/91/118 66/90/117 19/31/139 18/30/140
f 68/92/120 67/91/118 18/30/140 25/38/141
s 3
f 25/39/142 24/37/143 69/94/122 68/93/121
f 70/95/126 69/94/122 24/37/143 23/35/144
s 5
f 23/36/145 22/34/146 71/97/128 70/96/127
f 72/98/132 71/97/128 22/34/146 21/33/147
s 1
f 21/33/148 20/32/149 73/99/134 72/98/133
f 66/90/138 73/99/134 20/32/149 19/31/150
s 6
f 75/101/46 74/100/45 58/80/151 59/81/152
f 76/102/66 75/101/46 59/81/152 60/82/153
s 3
f 60/83/154 61/84/155 77/104/60 76/103/63
f 78/105/61 77/104/60 61/84/155 62/85/156
s 5
f 62/86/157 63/87/158 79/107/55 78/106/57
f 80/108/56 79/107/55 63/87/158 64/88/159
s 1
f 64/88/160 65/89/161 81/109/49 80/108/51
f 74/100/50 81/109/49 65/89/161 58/80/162
s 6
f 59/81/152 58/80/151 83/111/116 82/110/115
s 1
f 58/80/162 65/89/161 84/112/135 83/111/137
f 85/113/136 84/112/135 65/89/161 64/88/160
s 5
f 64/88/159 63/87/158 86/114/129 85/113/131
f 87/116/130 86/114/129 63/87/158 62/86/157
s 3
f 62/85/156 61/84/155 88/117/123 87/115/125
f 89/119/124 88/117/123 61/84/155 60/83/154
s 6
f 60/82/153 59/81/152 82/110/115 89/118/119
f 18/30/140 19/31/139 91/121/68 90/120/67
s 1
f 19/31/150 20/32/149 92/122/72 91/121/71
f 93/123/76 92/122/72 20/32/149 21/33/148
s 5
f 21/33/147 22/34/146 94/124/78 93/123/77
f 95/126/82 94/124/78 22/34/146 23/36/145
s 3
f 24/37/143 96/127/83 95/125/86 23/35/144
f 97/129/88 96/127/83 24/37/143 25/39/142
s 6
f 25/38/141 18/30/140 90/120/67 97/128/89
s 1
f 12/19/106 1/9/105 101/131/163 100/130/164
s off
f 1/9/165 16/26/166 98/132/167 101/131/168
f 17/28/169 2/10/170 103/134/171 102/133/172
s 1
f 2/10/107 12/19/106 100/130/173 103/134/174
s off
f 7/7/175 11/17/176 105/136/177 104/135/178
f 16/26/179 7/7/180 104/135/181 98/132/182
f 11/17/183 8/8/184 106/137/185 105/136/186
f 8/8/187 17/28/188 102/133/189 106/137/190
